<svg viewBox="0 0 128 128" xmlns="http://www.w3.org/2000/svg">
    <path d="M64 8 A56 56 0 0 1 120 64 L100 64 A36 36 0 0 0 64 28 Z" fill="#5B8DEF"></path>
    <path d="M120 64 A56 56 0 0 1 64 120 L64 100 A36 36 0 0 0 100 64 Z" fill="#4FBF8B"></path>
    <path d="M64 120 A56 56 0 0 1 8 64 L28 64 A36 36 0 0 0 64 100 Z" fill="#F25FA0"></path>
    <path d="M8 64 A56 56 0 0 1 64 8 L64 28 A36 36 0 0 0 28 64 Z" fill="#F4C542"></path>
    <circle cx="64" cy="64" r="34" fill="#EEF3F5"></circle>
    <g fill="#5B5B66">
        <circle cx="64" cy="64" r="22"></circle>
        <rect x="60" y="32" width="8" height="12" rx="2"></rect>
        <rect x="60" y="84" width="8" height="12" rx="2"></rect>
        <rect x="32" y="60" width="12" height="8" rx="2"></rect>
        <rect x="84" y="60" width="12" height="8" rx="2"></rect>
        <rect x="38" y="38" width="8" height="12" rx="2" transform="rotate(45 42 44)"></rect>
        <rect x="82" y="38" width="8" height="12" rx="2" transform="rotate(-45 86 44)"></rect>
        <rect x="38" y="78" width="8" height="12" rx="2" transform="rotate(-45 42 84)"></rect>
        <rect x="82" y="78" width="8" height="12" rx="2" transform="rotate(45 86 84)"></rect>
    </g>
    <circle cx="64" cy="64" r="11" fill="#EEF3F5"></circle>
</svg>
